<!-- icon666.com - MILLIONS vector ICONS FREE --><svg viewBox="0 0 32 32" fill="white" xmlns="http://www.w3.org/2000/svg"><g id="Layer_2" data-name="Layer 2"><path d="m25.4 29.5-6.19-10.67a9.82 9.82 0 0 0 2.79-12.91 9.93 9.93 0 0 0 -13.52-3.6 9.84 9.84 0 0 0 5 18.37 9.73 9.73 0 0 0 4-.88l6.2 10.69a1 1 0 0 0 1.36.37 1 1 0 0 0 .36-1.37zm-18.81-14.73a7.85 7.85 0 0 1 2.89-10.72 7.91 7.91 0 0 1 10.77 2.88 7.68 7.68 0 0 1 .75 5.94 7.76 7.76 0 0 1 -3.67 4.77 7.92 7.92 0 0 1 -10.74-2.87z"></path></g></svg>