<svg width="217" height="326" viewBox="0 0 217 326" fill="none" xmlns="http://www.w3.org/2000/svg">
<path d="M15 243.28L62.8244 173L148.908 176.732L194 243.28L149.364 235.195V326L125.679 293.037H78L55.5 326L53.715 235.195L15 243.28Z" fill="#61AD87"/>
<mask id="mask0_205_3" style="mask-type:alpha" maskUnits="userSpaceOnUse" x="15" y="173" width="179" height="153">
<path d="M15 243.28L62.8244 173L148.908 176.732L194 243.28L149.364 235.195V326L125.679 293.037H78L55.5 326L53.715 235.195L15 243.28Z" fill="#61AD87"/>
</mask>
<g mask="url(#mask0_205_3)">
<path d="M165 160.579C169.383 177.431 142.445 203.671 108.5 212.5C74.5547 221.329 48.3081 217.445 43.9249 200.593C39.5418 183.741 65.5548 181.829 99.5 173C133.445 164.171 160.617 143.727 165 160.579Z" fill="#2A4767" fill-opacity="0.37"/>
</g>
<ellipse cx="23.79" cy="16.3881" rx="15.5" ry="7" transform="rotate(-33.474 23.79 16.3881)" fill="#61AD87"/>
<rect x="21.691" y="21.3726" width="8" height="18" transform="rotate(-33.474 21.691 21.3726)" fill="#61AD87"/>
<path d="M196 101.18C184.5 160.68 135.5 204.084 71.5 200.68C24.5 198.18 15 148.393 15 90.6796C15 32.9658 62 -5.32042 125 3.17956C188 11.6795 208.05 38.8334 196 101.18Z" fill="#61AD87"/>
<ellipse cx="130" cy="142.5" rx="20" ry="22.5" fill="#EC9C9C"/>
<ellipse cx="130" cy="142.5" rx="20" ry="22.5" fill="#EC9C9C"/>
<ellipse cx="130" cy="142.5" rx="20" ry="22.5" fill="#EC9C9C"/>
<ellipse cx="130" cy="142.5" rx="20" ry="22.5" fill="#EC9C9C"/>
<ellipse cx="30" cy="140.5" rx="20" ry="22.5" fill="#EC9C9C"/>
<ellipse cx="30" cy="140.5" rx="20" ry="22.5" fill="#EC9C9C"/>
<ellipse cx="30" cy="140.5" rx="20" ry="22.5" fill="#EC9C9C"/>
<ellipse cx="30" cy="140.5" rx="20" ry="22.5" fill="#EC9C9C"/>
<path d="M149.5 118.5C149.5 137.554 117.226 165 99.0001 165C80.7747 165 81.0001 137.554 81.0001 118.5C81.0001 99.4462 98.2748 84 116.5 84C134.726 84 149.5 99.4462 149.5 118.5Z" fill="#1C1C1C"/>
<path d="M1.62151e-06 116.796C1.62151e-06 134.909 28.2697 161 44.2335 161C60.1973 161 59.9999 134.909 59.9999 116.796C59.9999 98.6834 44.8688 84 28.905 84C12.9412 84 1.62151e-06 98.6834 1.62151e-06 116.796Z" fill="#1C1C1C"/>
<path d="M52 173L68 183.5L85.5 173" stroke="#1C1C1C" stroke-width="3"/>
<ellipse cx="15.5" cy="7" rx="15.5" ry="7" transform="matrix(-0.834137 -0.551558 -0.551558 0.834137 216.58 19.0983)" fill="#61AD87"/>
<rect width="8" height="18" transform="matrix(-0.834137 -0.551558 -0.551558 0.834137 201.889 21.3726)" fill="#61AD87"/>
<mask id="mask1_205_3" style="mask-type:alpha" maskUnits="userSpaceOnUse" x="106" y="84" width="49" height="60">
<ellipse cx="130.5" cy="114" rx="24.5" ry="30" fill="#D9D9D9"/>
</mask>
<g mask="url(#mask1_205_3)">
<path d="M149.5 118.5C149.5 137.554 117.226 165 99.0001 165C80.7747 165 81.0001 137.554 81.0001 118.5C81.0001 99.4462 98.2748 84 116.5 84C134.726 84 149.5 99.4462 149.5 118.5Z" fill="white"/>
</g>
<mask id="mask2_205_3" style="mask-type:alpha" maskUnits="userSpaceOnUse" x="28" y="84" width="43" height="52">
<ellipse cx="49.5" cy="110" rx="21.5" ry="26" fill="#D9D9D9"/>
</mask>
<g mask="url(#mask2_205_3)">
<path d="M1.62151e-06 116.796C1.62151e-06 134.909 28.2697 161 44.2335 161C60.1973 161 59.9999 134.909 59.9999 116.796C59.9999 98.6834 44.8688 84 28.905 84C12.9412 84 1.62151e-06 98.6834 1.62151e-06 116.796Z" fill="white"/>
</g>
</svg>
